<svg width="1200" height="520" viewBox="0 0 1200 520" xmlns="http://www.w3.org/2000/svg" role="img" aria-label="Families walking toward a safe home">
  <defs>
    <linearGradient id="sky" x1="0" x2="1" y1="0" y2="1">
      <stop offset="0%" stop-color="#ffe6d5" />
      <stop offset="60%" stop-color="#e6e8ff" />
      <stop offset="100%" stop-color="#dff5ff" />
    </linearGradient>
    <linearGradient id="hill" x1="0" x2="1" y1="0" y2="0">
      <stop offset="0%" stop-color="#f4b9a6" />
      <stop offset="100%" stop-color="#9ad5b6" />
    </linearGradient>
  </defs>
  <rect width="1200" height="520" fill="url(#sky)" />
  <path d="M0 350 C 200 310, 400 420, 620 385 C 840 350, 980 420, 1200 370 L1200 520 L0 520 Z" fill="url(#hill)" opacity="0.9" />
  <g transform="translate(420 180)">
    <rect x="0" y="80" width="260" height="150" rx="18" fill="#ffffff" opacity="0.95" />
    <rect x="24" y="118" width="70" height="50" rx="10" fill="#f0f3ff" />
    <rect x="166" y="118" width="70" height="50" rx="10" fill="#f0f3ff" />
    <rect x="112" y="150" width="40" height="80" rx="10" fill="#e3e8ff" />
    <path d="M-10 105 L130 20 L270 105 Z" fill="#ffb56b" />
    <circle cx="130" cy="58" r="20" fill="#fff1d6" />
  </g>
  <g fill="#ffffff" opacity="0.7">
    <circle cx="140" cy="120" r="34" />
    <circle cx="175" cy="122" r="22" />
    <circle cx="210" cy="120" r="28" />
  </g>
</svg>
